<svg data-name="Слой 2" xmlns="http://www.w3.org/2000/svg" viewBox="0 0 48 48"><path d="M3.05 0H45a3.06 3.06 0 013 3.05V45a3.06 3.06 0 01-3 3H3.05a3.06 3.06 0 01-3-3V3.05a3.06 3.06 0 013-3.05z" fill="#322153"/><path d="M6.61 5.45h8.55a1.09 1.09 0 011.09 1.1v8.55a1.09 1.09 0 01-1.09 1.09H6.61a1.09 1.09 0 01-1.09-1.09V6.55a1.08 1.08 0 011.09-1.1zm13.05 0h8.55a1.09 1.09 0 011.09 1.1v8.55a1.09 1.09 0 01-1.09 1.09h-8.55a1.09 1.09 0 01-1.09-1.09V6.55a1.09 1.09 0 011.09-1.1zm13.18 0h8.55a1.09 1.09 0 011.09 1.1v8.55a1.09 1.09 0 01-1.09 1.09h-8.55a1.09 1.09 0 01-1.09-1.09V6.55a1.11 1.11 0 011.09-1.1z" fill="#edfeff"/><path d="M6.61 18.57h8.55a1.09 1.09 0 011.09 1.09v8.55a1.09 1.09 0 01-1.09 1.09H6.61a1.09 1.09 0 01-1.09-1.09v-8.55a1.09 1.09 0 011.09-1.09z" fill="#34cb79"/><path d="M19.66 18.57h8.55a1.09 1.09 0 011.09 1.09v8.55a1.09 1.09 0 01-1.09 1.09h-8.55a1.09 1.09 0 01-1.09-1.09v-8.55a1.11 1.11 0 011.09-1.09zm13.18 0h8.55a1.09 1.09 0 011.09 1.09v8.55a1.09 1.09 0 01-1.09 1.09h-8.55a1.09 1.09 0 01-1.09-1.09v-8.55a1.12 1.12 0 011.09-1.09zM6.61 31.83h8.55a1.09 1.09 0 011.09 1.09v8.53a1.1 1.1 0 01-1.09 1.1H6.61a1.09 1.09 0 01-1.09-1.1V32.9a1.08 1.08 0 011.09-1.07zm13.05 0h8.55a1.09 1.09 0 011.09 1.09v8.53a1.1 1.1 0 01-1.09 1.1h-8.55a1.09 1.09 0 01-1.09-1.1V32.9a1.09 1.09 0 011.09-1.07z" fill="#edfeff"/><path d="M32.84 31.83h8.55a1.09 1.09 0 011.09 1.09v8.53a1.1 1.1 0 01-1.09 1.1h-8.55a1.09 1.09 0 01-1.09-1.1V32.9a1.1 1.1 0 011.09-1.07z" fill="#34cb79"/></svg>